<svg xmlns="http://www.w3.org/2000/svg" viewBox="0 0 36 36">
  <rect width="36" height="36" fill="#B22234"/>
  <rect y="2.77" width="36" height="2.77" fill="#fff"/>
  <rect y="8.31" width="36" height="2.77" fill="#fff"/>
  <rect y="13.85" width="36" height="2.77" fill="#fff"/>
  <rect y="19.38" width="36" height="2.77" fill="#fff"/>
  <rect y="24.92" width="36" height="2.77" fill="#fff"/>
  <rect y="30.46" width="36" height="2.77" fill="#fff"/>
  <rect width="15" height="19.38" fill="#3C3B6E"/>
  <circle cx="2.5" cy="2" r="0.9" fill="#fff"/><circle cx="5.5" cy="2" r="0.9" fill="#fff"/><circle cx="8.5" cy="2" r="0.9" fill="#fff"/><circle cx="11.5" cy="2" r="0.9" fill="#fff"/>
  <circle cx="4"   cy="4.2" r="0.9" fill="#fff"/><circle cx="7"   cy="4.2" r="0.9" fill="#fff"/><circle cx="10"  cy="4.2" r="0.9" fill="#fff"/><circle cx="13"  cy="4.2" r="0.9" fill="#fff"/>
  <circle cx="2.5" cy="6.4" r="0.9" fill="#fff"/><circle cx="5.5" cy="6.4" r="0.9" fill="#fff"/><circle cx="8.5" cy="6.4" r="0.9" fill="#fff"/><circle cx="11.5" cy="6.4" r="0.9" fill="#fff"/>
  <circle cx="4"   cy="8.5" r="0.9" fill="#fff"/><circle cx="7"   cy="8.5" r="0.9" fill="#fff"/><circle cx="10"  cy="8.5" r="0.9" fill="#fff"/><circle cx="13"  cy="8.5" r="0.9" fill="#fff"/>
  <circle cx="2.5" cy="10.7" r="0.9" fill="#fff"/><circle cx="5.5" cy="10.7" r="0.9" fill="#fff"/><circle cx="8.5" cy="10.7" r="0.9" fill="#fff"/><circle cx="11.5" cy="10.7" r="0.9" fill="#fff"/>
  <circle cx="4"   cy="12.9" r="0.9" fill="#fff"/><circle cx="7"   cy="12.9" r="0.9" fill="#fff"/><circle cx="10"  cy="12.9" r="0.9" fill="#fff"/><circle cx="13"  cy="12.9" r="0.9" fill="#fff"/>
  <circle cx="2.5" cy="15.1" r="0.9" fill="#fff"/><circle cx="5.5" cy="15.1" r="0.9" fill="#fff"/><circle cx="8.5" cy="15.1" r="0.9" fill="#fff"/><circle cx="11.5" cy="15.1" r="0.9" fill="#fff"/>
  <circle cx="4"   cy="17.3" r="0.9" fill="#fff"/><circle cx="7"   cy="17.3" r="0.9" fill="#fff"/><circle cx="10"  cy="17.3" r="0.9" fill="#fff"/>
</svg>
